<svg xmlns="http://www.w3.org/2000/svg" viewBox="0 0 800 360" width="800" height="360" role="img" aria-label="Bounded tool-calling loop">
  <defs>
    <linearGradient id="bg2" x1="0" y1="0" x2="1" y2="1">
      <stop offset="0" stop-color="#0b0b13"/><stop offset="1" stop-color="#0a0a0f"/>
    </linearGradient>
  </defs>
  <rect width="800" height="360" fill="url(#bg2)"/>
  <g font-family="'JetBrains Mono', monospace">
    <text x="40" y="52" font-size="12" letter-spacing="3" fill="rgba(226,54,54,0.8)">BOUNDED TOOL LOOP · MAX 5 ROUNDS</text>
  </g>
  <g font-family="'JetBrains Mono', monospace" font-size="12.5" text-anchor="middle">
    <g>
      <rect x="40" y="90" width="150" height="70" rx="10" fill="rgba(255,255,255,0.03)" stroke="#3a2a2a"/>
      <text x="115" y="122" fill="#eef0f6">User</text><text x="115" y="142" font-size="10" fill="rgba(255,255,255,0.45)">query</text>
    </g>
    <g>
      <rect x="240" y="90" width="180" height="70" rx="10" fill="rgba(226,54,54,0.06)" stroke="rgba(226,54,54,0.4)"/>
      <text x="330" y="118" fill="#ff8f8f">Qwen2.5 7B</text><text x="330" y="140" font-size="10" fill="rgba(255,255,255,0.45)">Ollama · system prompt</text>
    </g>
    <g>
      <rect x="470" y="90" width="180" height="70" rx="10" fill="rgba(255,255,255,0.03)" stroke="#3a2a2a"/>
      <text x="560" y="118" fill="#eef0f6">Tool exec</text><text x="560" y="140" font-size="10" fill="rgba(255,255,255,0.45)">real API / mock data</text>
    </g>
    <g>
      <rect x="470" y="230" width="180" height="66" rx="10" fill="rgba(226,54,54,0.09)" stroke="#e23636"/>
      <text x="560" y="260" fill="#ffdcdc">Grounded answer</text><text x="560" y="281" font-size="10" fill="rgba(255,255,255,0.45)">or honest "don't know"</text>
    </g>
  </g>
  <g stroke="rgba(226,54,54,0.55)" stroke-width="2" fill="none" marker-end="url(#ah)">
    <path d="M190 125 H236"/>
    <path d="M420 125 H466"/>
    <path d="M560 160 V226"/>
    <path d="M470 263 H360 V162" stroke-dasharray="5 5"/>
  </g>
  <defs>
    <marker id="ah" markerWidth="8" markerHeight="8" refX="6" refY="3" orient="auto"><path d="M0 0 L6 3 L0 6 z" fill="rgba(226,54,54,0.8)"/></marker>
  </defs>
  <text x="300" y="205" font-family="'JetBrains Mono', monospace" font-size="10" fill="rgba(255,255,255,0.4)">feed tool result back &#8594; reason again (&#8804; 5&#215;)</text>
</svg>
