<svg xmlns="http://www.w3.org/2000/svg" viewBox="0 0 800 360" width="800" height="360" role="img" aria-label="Frozen protocol and reproducibility">
  <defs>
    <linearGradient id="bg2" x1="0" y1="0" x2="1" y2="1">
      <stop offset="0" stop-color="#0b0b13"/><stop offset="1" stop-color="#0a0a0f"/>
    </linearGradient>
    <marker id="ah2" markerWidth="8" markerHeight="8" refX="6" refY="3" orient="auto"><path d="M0 0 L6 3 L0 6 z" fill="rgba(34,211,238,0.8)"/></marker>
  </defs>
  <rect width="800" height="360" fill="url(#bg2)"/>
  <text x="40" y="52" font-family="'JetBrains Mono', monospace" font-size="12" letter-spacing="3" fill="rgba(34,211,238,0.8)">FROZEN-FIRST · REPRODUCIBLE BY DESIGN</text>
  <g font-family="'JetBrains Mono', monospace" font-size="12" text-anchor="middle">
    <g>
      <rect x="40" y="92" width="170" height="72" rx="10" fill="rgba(34,211,238,0.06)" stroke="rgba(34,211,238,0.4)"/>
      <text x="125" y="122" fill="#7fe6f5">Protocol frozen</text><text x="125" y="144" font-size="10" fill="rgba(255,255,255,0.45)">before any run</text>
    </g>
    <g>
      <rect x="250" y="92" width="170" height="72" rx="10" fill="rgba(255,255,255,0.03)" stroke="#183038"/>
      <text x="335" y="122" fill="#eef0f6">Immutable GT</text><text x="335" y="144" font-size="10" fill="rgba(255,255,255,0.45)">versioned splits</text>
    </g>
    <g>
      <rect x="460" y="92" width="170" height="72" rx="10" fill="rgba(255,255,255,0.03)" stroke="#183038"/>
      <text x="545" y="122" fill="#eef0f6">Model adapters</text><text x="545" y="144" font-size="10" fill="rgba(255,255,255,0.45)">one interface</text>
    </g>
    <g>
      <rect x="250" y="232" width="380" height="72" rx="10" fill="rgba(34,211,238,0.09)" stroke="#22d3ee"/>
      <text x="440" y="262" fill="#c9f4fb">Raw outputs &#8594; derived metrics</text><text x="440" y="284" font-size="10" fill="rgba(255,255,255,0.5)">kept separate for third-party verification</text>
    </g>
  </g>
  <g stroke="rgba(34,211,238,0.55)" stroke-width="2" fill="none" marker-end="url(#ah2)">
    <path d="M210 128 H246"/>
    <path d="M420 128 H456"/>
    <path d="M545 164 V228"/>
    <path d="M335 164 V232"/>
  </g>
</svg>
